{"title":"The Nutcracker in 3D (2010) BRRip NL subs DutchReleaseTeam","uid":6804969,"size":742393053,"categoryP":"video","categoryS":"movies","magnet":"?xt=urn:btih:94810c6920f117a9cc252381e22244f2e98670ee&amp;dn=The+Nutcracker+in+3D+%282010%29+BRRip+NL+subs+DutchReleaseTeam&amp;tr=udp%3A%2F%2Ftracker.openbittorrent.com%3A80&amp;tr=udp%3A%2F%2Fopen.demonii.com%3A1337&amp;tr=udp%3A%2F%2Ftracker.coppersurfer.tk%3A6969&amp;tr=udp%3A%2F%2Fexodus.desync.com%3A6969","seeders":1,"leechers":0,"uploader":"Koedje","files":-1,"time":1320829152,"description":" &lt;a href=&quot;http://img528.imageshack.us/img528/5740/nutcracker.jpg&quot; rel=&quot;nofollow&quot; target=&quot;_NEW&quot;&gt;http://img528.imageshack.us/img528/5740/nutcracker.jpg&lt;/a&gt;\n\n\nVerenigd Koninkrijk / Hongarije\nFantasy\n110 minuten\n\ngeregisseerd door Andrey Konchalovskiy\nmet Elle Fanning, Charlie Rowe en Nathan Lane\n\nHet meisje Mary (Elle Fanning) krijgt van haar oom (Nathan Lane) een op het oog niet zo bijzonder kerstcadeau: een notenkrakerpop. Maar als ze 's nachts wakker wordt blijkt dat de pop tot leven is gekomen en hij trekt Mary mee in een sprookjesachtig avontuur.\n\n\n\nVertaald door Simply Release Toppers:\nJack The Ripper en Kevinnz\n\n\n\n\n\nScreenshots:\n &lt;a href=&quot;\nhttp://img6.imageshack.us/img6/350/screenshot1fo.jpg&quot; rel=&quot;nofollow&quot; target=&quot;_NEW&quot;&gt;\nhttp://img6.imageshack.us/img6/350/screenshot1fo.jpg&lt;/a&gt;\n &lt;a href=&quot;\nhttp://img408.imageshack.us/img408/1879/screenshot2os.jpg&quot; rel=&quot;nofollow&quot; target=&quot;_NEW&quot;&gt;\nhttp://img408.imageshack.us/img408/1879/screenshot2os.jpg&lt;/a&gt;\n &lt;a href=&quot;\nhttp://img832.imageshack.us/img832/8532/screenshot3zj.jpg&quot; rel=&quot;nofollow&quot; target=&quot;_NEW&quot;&gt;\nhttp://img832.imageshack.us/img832/8532/screenshot3zj.jpg&lt;/a&gt;\n &lt;a href=&quot;\nhttp://img411.imageshack.us/img411/9587/screenshot4fm.jpg&quot; rel=&quot;nofollow&quot; target=&quot;_NEW&quot;&gt;\nhttp://img411.imageshack.us/img411/9587/screenshot4fm.jpg&lt;/a&gt;\n\n\n\n\nINFO;\n\n\normat                                   : AVI\nFormat/Info                              : Audio Video Interleave\nFile size                                : 702 MiB\nDuration                                 : 1h 48mn\nOverall bit rate mode                    : Variable\nOverall bit rate                         : 908 Kbps\n\n\nVideo\nID                                       : 0\nFormat                                   : MPEG-4 Visual\nFormat profile                           : Advanced Simple@L5\nFormat settings, BVOP                    : 1\nFormat settings, QPel                    : No\nFormat settings, GMC                     : No warppoints\nFormat settings, Matrix                  : Custom\nCodec ID                                 : XVID\nCodec ID/Hint                            : XviD\nDuration                                 : 1h 48mn\nBit rate                                 : 781 Kbps\nWidth                                    : 608 pixels\nHeight                                   : 256 pixels\nDisplay aspect ratio                     : 2.40:1\nFrame rate                               : 23.976 fps\nColor space                              : YUV\nChroma subsampling                       : 4:2:0\nBit depth                                : 8 bits\nScan type                                : Progressive\nCompression mode                         : Lossy\nBits/(Pixel*Frame)                       : 0.209\nStream size                              : 604 MiB (86%)\nWriting library                          : XviD 64\n\nAudio\nID                                       : 1\nFormat                                   : MPEG Audio\nFormat version                           : Version 1\nFormat profile                           : Layer 3\nMode                                     : Joint stereo\nMode extension                           : MS Stereo\nCodec ID                                 : 55\nCodec ID/Hint                            : MP3\nDuration                                 : 1h 48mn\nBit rate mode                            : Variable\nBit rate                                 : 114 Kbps\nNominal bit rate                         : 128 Kbps\nChannel(s)                               : 2 channels\nSampling rate                            : 48.0 KHz\nCompression mode                         : Lossy\nStream size                              : 88.5 MiB (13%)\nAlignment                                : Aligned on interleaves\nInterleave, duration                     : 24 ms (0.58 video frame)\nInterleave, preload duration             : 160 ms\n\n\n\n &lt;a href=&quot;\nhttp://www.imdb.com/title/tt1041804/&quot; rel=&quot;nofollow&quot; target=&quot;_NEW&quot;&gt;\nhttp://www.imdb.com/title/tt1041804/&lt;/a&gt; &lt;a href=&quot;\nhttp://www.moviemeter.nl/film/46867&quot; rel=&quot;nofollow&quot; target=&quot;_NEW&quot;&gt;\nhttp://www.moviemeter.nl/film/46867&lt;/a&gt;\n\n\n\n\nDeze film wordt u aangeboden door het DutchReleaseTeam.\nVoor de reviews van de nieuwste films, muziek, series, games etc\nga dan eens naar http://www.hetmultimediacafe.be\n\nDutchReleaseteam = Hardcoded Dutch Subs","torrent":{"xt":"urn:btih:94810c6920f117a9cc252381e22244f2e98670ee","amp;dn":"The+Nutcracker+in+3D+%282010%29+BRRip+NL+subs+DutchReleaseTeam","amp;tr":["udp%3A%2F%2Ftracker.openbittorrent.com%3A80","udp%3A%2F%2Fopen.demonii.com%3A1337","udp%3A%2F%2Ftracker.coppersurfer.tk%3A6969","udp%3A%2F%2Fexodus.desync.com%3A6969"],"infoHash":"94810c6920f117a9cc252381e22244f2e98670ee","infoHashBuffer":{"type":"Buffer","data":[148,129,12,105,32,241,23,169,204,37,35,129,226,34,68,242,233,134,112,238]},"announce":[],"urlList":[]}}